<svg version="1.1" xmlns="http://www.w3.org/2000/svg" viewBox="0 0 475.5 425" width="475.5" height="425">
  <g stroke-linecap="round" transform="translate(10 273.5) rotate(0 69.5 70.5)"><path d="M46.96 3.53 C55.6 -0.65, 67.25 -0.29, 77.19 0.84 C87.12 1.97, 98.13 4.84, 106.55 10.31 C114.97 15.77, 122.51 24.75, 127.71 33.62 C132.91 42.48, 136.69 53.43, 137.76 63.52 C138.83 73.61, 137.25 84.63, 134.11 94.17 C130.97 103.71, 125.94 113.41, 118.91 120.75 C111.88 128.09, 101.42 134.87, 91.93 138.18 C82.44 141.5, 71.82 142.06, 61.97 140.62 C52.11 139.18, 41.46 134.92, 32.81 129.56 C24.17 124.2, 15.37 117.09, 10.09 108.45 C4.82 99.82, 2.13 88.08, 1.17 77.76 C0.2 67.44, 0.94 56.04, 4.28 46.54 C7.62 37.04, 13.57 27.9, 21.22 20.75 C28.88 13.59, 44.91 6.49, 50.21 3.61 C55.51 0.74, 52.93 2.37, 53.05 3.51 M42.28 6.09 C50.55 1.58, 62.24 0.75, 72.65 1.44 C83.06 2.14, 95.83 5.33, 104.71 10.25 C113.58 15.18, 120.31 22.85, 125.9 30.99 C131.49 39.12, 136.32 49.1, 138.26 59.04 C140.19 68.98, 140.51 80.56, 137.5 90.62 C134.48 100.69, 127.29 112.05, 120.18 119.45 C113.07 126.84, 104.18 131.54, 94.82 134.98 C85.47 138.43, 74.06 140.8, 64.04 140.11 C54.01 139.42, 43.46 135.85, 34.69 130.84 C25.93 125.83, 17.1 118.32, 11.45 110.06 C5.8 101.79, 2.39 91.39, 0.79 81.25 C-0.81 71.1, -0.87 59.08, 1.85 49.18 C4.57 39.27, 10.04 29.24, 17.11 21.82 C24.17 14.4, 39.94 7.31, 44.23 4.67 C48.51 2.04, 42.42 4.81, 42.82 6" stroke="#000000" stroke-width="1" fill="white"></path></g><g transform="translate(57.64774473841874 331.6489719263484) rotate(0 21.70833396911621 12.5)"><text x="21.70833396911621" y="0" font-family="Virgil, Segoe UI Emoji" font-size="20px" fill="#000000" text-anchor="middle" style="white-space: pre;" direction="ltr" dominant-baseline="text-before-edge">Hank</text></g><g stroke-linecap="round" transform="translate(326.5 274) rotate(0 69.5 70.5)"><path d="M83.43 1.23 C93.23 2.08, 104.25 7.29, 112.17 13.41 C120.08 19.53, 126.57 28.93, 130.91 37.96 C135.26 46.99, 137.88 57.39, 138.24 67.6 C138.59 77.82, 137.09 89.73, 133.03 99.23 C128.97 108.73, 121.58 118.15, 113.87 124.6 C106.16 131.06, 96.49 135.31, 86.76 137.97 C77.03 140.64, 65.19 142.3, 55.48 140.59 C45.78 138.88, 36.62 134.12, 28.52 127.7 C20.42 121.28, 11.8 111.36, 6.9 102.06 C1.99 92.76, -0.65 82.01, -0.93 71.91 C-1.2 61.81, 0.91 50.75, 5.23 41.48 C9.54 32.22, 17.07 22.98, 24.96 16.3 C32.85 9.63, 41.75 3.74, 52.58 1.43 C63.4 -0.87, 82.78 1.56, 89.9 2.49 C97.02 3.42, 95.73 5.89, 95.29 7.02 M63.98 1.05 C73.4 -0.84, 85.27 0.85, 94.81 4.48 C104.36 8.11, 114.42 15.3, 121.26 22.83 C128.1 30.35, 133.15 39.55, 135.85 49.62 C138.55 59.7, 139.24 73.18, 137.46 83.29 C135.68 93.4, 130.57 102.19, 125.14 110.28 C119.71 118.37, 113.5 126.68, 104.86 131.83 C96.22 136.97, 83.33 140.64, 73.28 141.14 C63.22 141.63, 53.7 138.46, 44.52 134.79 C35.35 131.11, 25.15 126.48, 18.25 119.09 C11.35 111.69, 6.16 100.5, 3.13 90.43 C0.1 80.36, -1.3 68.81, 0.07 58.65 C1.44 48.49, 5.24 37.69, 11.33 29.48 C17.43 21.26, 27.64 14.29, 36.64 9.36 C45.65 4.42, 60.78 1.06, 65.38 -0.13 C69.97 -1.32, 63.98 1.22, 64.21 2.23" stroke="#000000" stroke-width="1" fill="white"></path></g><g transform="translate(374.33107908900456 332.1489719263484) rotate(0 21.524999618530273 12.5)"><text x="21.524999618530273" y="0" font-family="Virgil, Segoe UI Emoji" font-size="20px" fill="#000000" text-anchor="middle" style="white-space: pre;" direction="ltr" dominant-baseline="text-before-edge">Jeff</text></g><g stroke-linecap="round" transform="translate(153.5 10) rotate(0 69.5 70.5)"><path d="M54.43 2.18 C63.73 -1.18, 75.84 -1.09, 85.64 1.13 C95.44 3.35, 105.57 9.17, 113.23 15.51 C120.89 21.85, 127.22 29.92, 131.62 39.17 C136.01 48.41, 139.34 60.8, 139.58 70.98 C139.83 81.16, 137.59 91.17, 133.09 100.23 C128.59 109.29, 120.63 118.8, 112.57 125.33 C104.5 131.87, 94.34 137.18, 84.68 139.44 C75.03 141.71, 64.24 141.11, 54.64 138.94 C45.04 136.76, 34.87 132.53, 27.08 126.39 C19.3 120.25, 12.56 111.49, 7.94 102.07 C3.32 92.65, -0.31 80.25, -0.64 69.87 C-0.98 59.49, 1.41 48.89, 5.95 39.8 C10.5 30.7, 16.76 21.96, 26.61 15.28 C36.45 8.61, 56.83 1.86, 65.01 -0.27 C73.18 -2.39, 75.55 1.34, 75.65 2.51 M86.8 1.08 C96.43 2.68, 107.51 9.76, 115.37 16.7 C123.24 23.64, 130.21 33.31, 133.99 42.7 C137.78 52.09, 138.85 62.82, 138.11 73.04 C137.37 83.27, 133.99 94.87, 129.56 104.03 C125.14 113.2, 119.56 121.92, 111.55 128.05 C103.54 134.17, 91.44 139.17, 81.51 140.78 C71.58 142.4, 61.44 140.58, 51.97 137.73 C42.51 134.89, 32.52 130.11, 24.73 123.72 C16.95 117.33, 9.24 108.89, 5.28 99.38 C1.32 89.87, 0.34 76.83, 0.95 66.65 C1.55 56.47, 4.54 47.28, 8.91 38.3 C13.28 29.33, 19.39 18.91, 27.16 12.8 C34.92 6.68, 45.6 3.51, 55.51 1.62 C65.43 -0.28, 81.52 1.25, 86.64 1.42 C91.76 1.59, 86.13 1.47, 86.22 2.64" stroke="#000000" stroke-width="1" fill="white"></path></g><g transform="translate(204.96441229518143 68.1489719263484) rotate(0 17.891666412353516 12.5)"><text x="17.891666412353516" y="0" font-family="Virgil, Segoe UI Emoji" font-size="20px" fill="#000000" text-anchor="middle" style="white-space: pre;" direction="ltr" dominant-baseline="text-before-edge">Bob</text></g><g stroke-linecap="round"><g transform="translate(280 122.5) rotate(0 45.100484473072015 78.3671882355213)"><path d="M-1.1 0.36 C13.92 26.49, 74.05 130.2, 89.08 156.15 M0.52 -0.5 C16 25.81, 76.15 131.01, 91.31 157.23" stroke="#000000" stroke-width="1" fill="white"></path></g></g><mask></mask><g stroke-linecap="round"><g transform="translate(171 127.5) rotate(0 -43.935562019627525 72.53650238673202)"><path d="M-0.87 -0.6 C-15.49 23.33, -73.06 119.84, -87.52 144.09 M0.88 1.7 C-13.96 25.79, -73.81 122.12, -88.75 145.67" stroke="#000000" stroke-width="1" fill="white"></path></g></g><mask></mask></svg>