<svg xmlns="http://www.w3.org/2000/svg" fill="none" data-source="https://2.flexiple.com/scale/all-illustrations" viewBox="0 0 1600 1200">
  <defs/>
  <path fill="#3F4249" d="M1229 1018.2l159.5-316.7a56 56 0 00-1.8-53.7l-247.3-418.6a56 56 0 00-46.3-27.5l-608-21a56 56 0 00-46.7 22.3L217 497.6a56 56 0 00-9.3 48L333 1018.2H1229z"/>
  <path fill="#858990" d="M286.4 850.6h1027l-84.5 167.6H333.1l-46.7-167.6z"/>
  <path fill="#D9DCDE" d="M819.2 397s-41.6 44-72.1 72.5c-21.5 20.1-87.2 80.5-87.2 80.5s51.9 32.4 72.6 44.4l65.2 38.4S897.2 584.4 930 567c18-9.6 70.9-41 70.9-41s-77.4-47.5-102.2-65c-20.6-14.7-79.4-64-79.4-64z"/>
  <path fill="#fff" d="M660 550s65.6-60.4 87-80.5c30.6-28.5 72.2-72.4 72.2-72.4v54.8l-18 1.7 29.1 34.9-54.8-1.2 11.4 23.8-91.6 66.1-35.4-27.2z"/>
  <path fill="#D9DCDE" d="M1102.3 440.2S995 505.6 956.7 526.4A7611 7611 0 01765.2 622l211.5 143.5 376.1-109.7-53-105s-82.3-37.6-108.3-51.5c-50.8-27.1-89.2-59-89.2-59z"/>
  <path fill="#000" d="M1102.3 440.2S995 505.6 956.7 526.4A7611 7611 0 01765.2 622l211.5 143.5 376.1-109.7-53-105s-82.3-37.6-108.3-51.5c-50.8-27.1-89.2-59-89.2-59z" opacity=".2"/>
  <path fill="#fff" d="M765.2 621.9s145.6-70.4 191.5-95.5c38.3-20.8 145.6-86.2 145.6-86.2l-52.2 71 41.5 13.5-58.4 13.6 3.2 29.9-119 25.6 27.8 25.9L779.6 642 765.2 622z"/>
  <path fill="#858990" d="M535.5 410s63.6 43.6 84.7 57.4c84.2 55.5 419 247.5 419 247.5l-204.2 85L234 643l-15-53.4s115.3-52.7 162.8-78.1c53-28.4 153.7-101.5 153.7-101.5z"/>
  <path fill="#fff" d="M219 589.7s95.6-39.4 162.8-78.1A2063 2063 0 00535.5 410l14.5 60.6-51.3 18.6L538 511 254 683.7l-35-94z"/>
  <path fill="#D9DCDE" d="M243.8 462.2l-27 36a56 56 0 00-9.6 47l48.6 197.5 266 10.1 56.4-54.6s-51.3-41-86.1-1c0 0 12.9-114.6-48.8-132-18-5.1-41.7 5.6-52 33.7 0 0-3-34-28.6-42.9-14.2-4.8-23.3 3.4-28.6 11.7 0 0 .3-32.8-38.5-28.2 0 0-.8-55.3-51.9-77.3zM751.9 781.1s31.1-73 104-65.4c17.9 2 44.6 19 47 34 0 0 3-31.2 39.5-31 11 0 20 3.2 27.2 7.7 0 0-8-30.9 34.7-33 0 0-14.6-44 0-49.9 14.6-5.9 22.5 24 22.5 24s-6.6-49.8 5.5-52.5c12-2.8 22 43.6 22 43.6s5.3-73 92-60.6c0 0-16.4-39.3 7-42.3 6.6-.8 12.3 3 17 8.8 0 0-8-43.2 39.2-63.3 0 0-19.9-26.5-6.1-34 9.8-5.2 23.8 13.1 31 24 0 0 10.4-33.3 36-40.3l116 196.5a56.6 56.6 0 011.8 54.4l-75.7 148.8h-524L751.9 781z"/>
  <path fill="#AFB3B8" d="M292.7 651.4c2.4 7.4 4.9 12.8 4.9 12.8s-1.6-5.9-5-12.8z"/>
  <path fill="#AFB3B8" d="M521.8 752.8c-.6-8.3-6.2-13.3-12.2-16.3-21-10.1-33.4 8.6-33.4 8.6.5-13.2-2.3-24.7-11.4-30.3-29.4-17.8-50.7 15.3-50.7 15.3s3.1-36.2-11.5-67.8C387.9 630.8 359 668 359 668s12-79.3-12.2-75c-24 4.4-20.9 59.8-20.9 59.8S313.2 597 295.4 609c-11.6 7.7-7.2 28.6-2.7 42.5 3.3 7 4.9 12.8 4.9 12.8s-2.5-5.4-5-12.9c-5.4-11.4-15.6-25.7-31.3-21.8-25.3 6.3-10.2 97.2-10.2 97.2l35.3 123.9h164l71.4-97.8zM1313.2 850.6H913.6s-8-35.7 7-44.7c15.2-9 34.4 19.5 34.4 19.5s-3.6-18.5 9.8-18c6.8.3 10.9 8.3 12 16.3 0 0-4-59.3 72.6-49.6 0 0-7-19.7 20.3-24.9 0 0 13-63 77.2-43.1 0 0-4.3-24 11.8-33.8 13.4-8.2 22.9-3.3 28.7 2.5 0 0-13-23.8 5.4-41.9a41 41 0 0123.5-11.6s8.4-36.7 58.4-30c20 2.7 33 10 41.5 18 0 0 12.3-28.8 41.9-10l27.9 48.1a58 58 0 012.8 54.6l-75.6 148.6z"/>
  <path fill="#000" d="M603.6 1018.2s-7.8-33.2 1.6-37.2 5.6 27.5 5.6 27.5 7.5-58.5 27-57.9c19.4.6-11.5 54.3-11.5 54.3s20.3-20.5 27.4-12.6c6.7 7.5-14.9 25.9-14.9 25.9h-35.2z"/>
  <path fill="#4d61fc" d="M658.2 1018.2s20-24.1 51.7-23.6a67.9 67.9 0 0149.6 23.6H658.2zM909.4 1018.2s6.2-12.4 35.1-13a54.1 54.1 0 0132.3 10.5s4.8-11.8 16.2-10.9c11.5 1 26 13.4 26 13.4H909.4z" class="change-color-in-svg"/>
  <path fill="#000" d="M746.7 1018.2s-10.7-15.3-2.7-20.7c8-5.4 31.4 20.7 31.4 20.7h-28.7zM781.5 1018.2s7-41.9 21-43c14.1-1.3-2.2 38.7-2.2 38.7s27.3-32 43.2-30.1c15.9 1.8-14 30-14 30s26.7-15.2 49-8.7c17.7 5 23.8 13 23.8 13H781.5zM1039.3 1018.2s8.5-19.2 39.4-21.3c0 0-22.5-18-15.7-26.5 6.8-8.5 34.2 20.5 34.2 20.5s-6.8-23.9 0-26.9 19 24.3 19 24.3 2.6-30.7 40-23.1c0 0-22.1-30.1-2.2-46.5 8.7-7.1 21-3 32.2 4 0 0-37.6-56.5-11.8-68.6 25.8-12 58 40.7 58 40.7s1.3-35 55-25.6c0 0-32.7-21-21.5-28.1 11.1-7.2 33 8.9 33 8.9s-40.9-33.9-25.9-48.3c15.4-14.7 49.8 30.2 49.8 30.2l-93.9 186.3h-189.6z"/>
  <path fill="#B2B6BB" d="M1284.5 1019.4H287.8c-.4 0-.6-.3-.6-.6 0-.4.3-.6.6-.6h996.8c.4 0 .6.2.6.6 0 .3-.3.6-.7.6z"/>
  <path fill="#fff" d="M669.8 250.2a56.2 56.2 0 01-69 83 54.9 54.9 0 1069-83zM830.4 274.5a2 2 0 100-3.8 2 2 0 000 3.8zM710.6 230a2 2 0 100-4 2 2 0 000 4zM1102.3 274.5a2 2 0 100-3.8 2 2 0 000 3.8zM325.6 409.2a2 2 0 100-3.9 2 2 0 000 3.9zM911.3 332.8a2 2 0 100-3.9 2 2 0 000 3.9zM1000.8 252.2a2 2 0 100-3.9 2 2 0 000 3.9zM1155 373a2 2 0 100-4 2 2 0 000 4zM1008.7 423a2 2 0 100-3.9 2 2 0 000 3.9zM765.2 365.4a2 2 0 100-3.8 2 2 0 000 3.8zM420.8 440.2a2 2 0 100-3.8 2 2 0 000 3.8zM490.3 336.6a2 2 0 100-3.8 2 2 0 000 3.8zM332.1 491a2 2 0 100-3.9 2 2 0 000 3.9zM569.3 288.7a2 2 0 100-3.9 2 2 0 000 3.9zM480.3 233.8a2 2 0 100-3.9 2 2 0 000 3.9zM619.6 407.2a2 2 0 100-3.8 2 2 0 000 3.8zM745.1 430.6a2 2 0 100-3.9 2 2 0 000 3.9zM394.9 338.6a2 2 0 100-3.9 2 2 0 000 3.9z"/>
  <path fill="#4d61fc" d="M1099.7 941.5h-82a5.8 5.8 0 01-6-5.8V804.4c0-3.2 2.7-5.8 6-5.8h82c3.2 0 5.8 2.6 5.8 5.8v131.3c0 3.2-2.6 5.8-5.8 5.8z" class="change-color-in-svg"/>
  <path fill="#fff" d="M1099.7 941.5h-82a5.8 5.8 0 01-6-5.8V804.4c0-3.2 2.7-5.8 6-5.8h82c3.2 0 5.8 2.6 5.8 5.8v131.3c0 3.2-2.6 5.8-5.8 5.8z" opacity=".1"/>
  <path fill="#4d61fc" d="M1084.8 941.5h-82a5.8 5.8 0 01-5.9-5.8V804.4c0-3.2 2.6-5.8 5.8-5.8h82.1c3.2 0 5.9 2.6 5.9 5.8v131.3c0 3.2-2.7 5.8-5.9 5.8z" class="change-color-in-svg"/>
  <path fill="#fff" d="M1084.8 941.5h-82a5.8 5.8 0 01-5.9-5.8V804.4c0-3.2 2.6-5.8 5.8-5.8h82.1c3.2 0 5.9 2.6 5.9 5.8v131.3c0 3.2-2.7 5.8-5.9 5.8z" opacity=".3"/>
  <path fill="#000" d="M1061 896h-.7c-2.3 0-4-2-4-4.6v-43.7c0-2-1.4-3.5-3-3.5h-.5c-1.7 0-3 1.5-3 3.5V883c0 2.6-1.8 4.7-4 4.7-2.3 0-4-2-4-4.7v-47.7h1v47.7c0 2 1.3 3.5 3 3.5 1.6 0 3-1.6 3-3.5v-35.4c0-2.6 1.8-4.7 4-4.7h.5c2.2 0 4 2 4 4.7v43.7c0 1.9 1.3 3.5 3 3.5h.8c1.6 0 3-1.6 3-3.5v-32.8c0-4.2.7-8.2 2-12a34 34 0 002-11.6v-21.4c0-8.2-6.3-15-6.3-15h1.5c.2.2 5.9 6.2 5.9 15V835c0 4.1-.7 8.2-2 12a34 34 0 00-2 11.6v32.8c0 2.6-1.9 4.7-4.1 4.7zM1078.5 941.5h-14.3v-15.7c0-2.4.8-4.7 2.1-6.5l5.7-7.8a9.8 9.8 0 001.8-5.8v-16.4c0-1.5 1-2.7 2.4-2.7 1.3 0 2.3 1.2 2.3 2.7v52.2zm-13.2 0h12.1v-52.2c0-.8-.5-1.5-1.2-1.5-.8 0-1.3.7-1.3 1.5v16.5c0 2.4-.8 4.7-2 6.5l-5.8 7.8a9.8 9.8 0 00-1.8 5.7v15.7zM1078 863.6c-2.8 0-5.2-2.8-5.2-6.2v-17.5c0-2 .7-3.9 1.9-5.2 1-1.1 1.5-2.7 1.5-4.3v-24.7c0-1.7-.6-3.3-1.6-4.4l-2.6-2.7h11.4v58.8c0 3.4-2.4 6.2-5.3 6.2zm-4.4-65l1.7 1.8c1.3 1.4 2 3.3 2 5.3v24.7c0 2-.7 3.8-1.9 5.2a6.5 6.5 0 00-1.6 4.3v17.5c0 2.7 2 5 4.3 5s4.2-2.3 4.2-5v-58.8h-8.7zM1038.8 941.5h-10V911c0-.9.2-1.6.7-2.3l3.4-3.8c.3-.4.5-1 .5-1.4v-12.9c0-1.7 1.2-3.1 2.7-3.1 1.5 0 2.7 1.4 2.7 3.1v50.8zm-9 0h8v-50.8c0-1-.8-2-1.7-2-1 0-1.7 1-1.7 2v12.9c0 .8-.3 1.6-.8 2.2l-3.3 4c-.4.3-.5.8-.5 1.3v30.4z" opacity=".3"/>
  <path fill="#21252B" d="M996.5 874.3l.5 7.2 3.4-1.6-3.9-5.6z"/>
  <path fill="#F79898" d="M990.9 866l7.7 11.3 8.6 3.6 5-17-8-12.4-13.3 14.6z"/>
  <path fill="#fff" d="M995.9 873.4l2.7 4 8.6 3.5 5-17-3.3-5.1-13 14.6zM1018.5 875.5l2.9 4.8-11 25.7c-2 4.5-5.5 7.7-9.4 10.5l-4.2 2.9c-5.6 2.8-9.7-4-9.7-4l5.8.1 10.2-8.6 15.4-31.4z"/>
  <path fill="#21252B" d="M985.4 913.2a6 6 0 01.7-6.3l7.2-8.8-1.7-11.3a8.3 8.3 0 0113.6-7.6l2 1.7 1.3-16.3c0-.6.4-1.1.9-1.4l1.6-1.2 7.5 13.5-11.2 26.1c-2 4.5-5 8.3-9 11l-4 3a6 6 0 01-8.9-2.4z"/>
  <path fill="#000" d="M990.1 902s.8 3.6 4.4 2.7c3.7-.8 11.5-10 12.7-23.8 0 0-4.5-5-10-3.2-5.5 1.8-6 6.9-5.4 10.4l1.5 10-3.1 3.8z"/>
  <path fill="#fff" d="M992.9 895.4l4-.9c.3 0 .5-.3.4-.6 0-.3-.4-.5-.7-.4l-3.9.8.2 1zM992.3 891.5l5-1c.3-.1.4-.4.4-.7 0-.3-.4-.5-.7-.4l-4.9 1 .2 1zM991.7 887.5l5.8-1.2c.4 0 .5-.4.5-.7 0-.3-.4-.5-.7-.4l-5.8 1.2.2 1.1z"/>
  <path fill="#21252B" d="M1105.6 737.6v39a22 22 0 01-22 22h-23.2l-14.2 83.6h-26.7l.6-100.4c0-7.7 5-14.6 12.2-17.3l73.3-27z"/>
  <path fill="#000" d="M1040 882.2h6.2l14.2-83.6h-6.2l-14.2 83.6zM1099.3 739.9v36.7a22 22 0 01-22 22h6.2a22 22 0 0022-22v-39l-6.2 2.3z" opacity=".1"/>
  <path fill="#21252B" d="M974.7 755l-47.4 1a15 15 0 00-11.4 24.3l69 85.8 16.9-18.8-32.9-48.7h54l66.2-52.3-55.2-18.4-59.2 27.1z"/>
  <path fill="#000" d="M1013 798.6v-16.8c0-7.8 5-14.6 12.2-17.3l73.3-27v1.7l-68.7 26.2c-7.2 2.6-9.6 8.6-9.7 16.4v16.8h-7.2z" opacity=".1"/>
  <path fill="#4d61fc" d="M996.5 687.2l88.6 45.4 29.6 4-6-57c-1.7-12.7-8.4-17.7-14.8-20l-60-11-37.4 38.6z" class="change-color-in-svg"/>
  <path fill="#4d61fc" d="M960.5 680.5l24.9-32.4c4.5-6 12-8.7 19.4-7.2l81.7 17.4-55.8 25.2-30.7 1.2-11.2 8.6-29.2-4.6 1-8.2z" class="change-color-in-svg"/>
  <path fill="#21252B" d="M1054.4 621.9s14.2-.6 19.8 5.1c4.2 4.3 5.1 16.5-4.3 23.6-9.3 7-22.6 11.3-22.6 11.3l7.1-40z"/>
  <path fill="#3F4249" d="M1052.2 583.6c9.6-.8 13.7 9.6 14.8 22.5 1.2 13-1 20.8-10.6 21.6-9.5.8-18-6-19-19-1.2-12.9 5.3-24.2 14.8-25z"/>
  <path fill="#F79898" d="M1023 615.1s29.4-22.1 32.7 1.5l1 6.2 6.1 34.5c.1 1-36.3-2.9-36.3-4l.4-15c-.5-1.6-1-3.4-1.1-5.5-1.1-9.3-2.7-17.7-2.7-17.7z"/>
  <path fill="#F79898" d="M1045 662.2c9.7-.9 17.2-6 16.7-11.4s-8.7-9.1-18.4-8.3c-9.8.9-17.2 6-16.8 11.4.5 5.4 8.8 9.1 18.5 8.3z"/>
  <path fill="#3F4249" d="M1019.6 616.9a10.5 10.5 0 100-21 10.5 10.5 0 000 21z"/>
  <path fill="#F79898" d="M1018.1 598.7s-7 47.1 17 48.2c20.8 1 20.3-31.3 20.3-31.3l-2.9-20.6-34.4 3.7z"/>
  <path fill="#3F4249" d="M1051.3 610.5a31.6 31.6 0 01-2.6 17.8c-25.7-1.2-29.3 3.8-29.3 3.8s2.7 12.6 13.4 14.4c10.7 1.8 26-6 24.7-20.4-.4-3.5-7.8-22.1-7.8-22.1l1.6 6.5z"/>
  <path fill="#000" d="M1032.6 638.4s.1 0 0 0h3c.3-.1.5-.4.6-.8 0-.3-.3-.6-.7-.6h-2.8c-.4 0-.7.3-.7.6 0 .5.3.8.6.8z" opacity=".3"/>
  <path fill="#fff" d="M1031.4 635.7c5.2.3 7.3-2.7 8-4.1.2-.3 0-1.4-.4-1.6-.3-.1-10.8 3.5-11 3.9 0 .3.4 1.4.7 1.5l2.7.3z"/>
  <path fill="#3F4249" d="M1030.5 604c9.3-.8 16.3-7.5 15.7-14.8-.7-7.4-8.7-12.7-18-11.9-9.3.8-16.3 7.5-15.7 14.8.7 7.4 8.8 12.7 18 11.9z"/>
  <path fill="#3F4249" d="M1050.8 584c5.8-.5 11 5 11.7 12.3.6 7.4-3.5 15.3-9.3 15.8-5.8.6-11.2-6.6-11.8-14-.7-7.3 3.5-13.6 9.4-14.1z"/>
  <path fill="#000" d="M1056.8 624.3s-2 .3-3-.4l3.7 4.8-.7-4.4z" opacity=".1"/>
  <path fill="#F79898" d="M1052.8 612.1s3-4.5 7.7-3c5.3 2 5.3 13.7-3.4 15.2-4.5.7-3.8-2-3.4-5.6-.3-4.3-.9-6.6-.9-6.6z"/>
  <path fill="#000" d="M1061 612.2c-1-.5-1.8-.7-2.6-.5-.8.3-1.4.9-1.8 1.8-.5 1-.7 2-.6 3.3v1c0 .3.3.5.6.5s.5-.3.5-.6v-1c0-.3 0-1.9.4-2.7.3-.7.8-1 1.2-1.3.5-.1 1 0 1.7.3.3.2.6 0 .8-.2.1 0 0-.4-.2-.6z" opacity=".3"/>
  <path fill="#F79898" d="M1018.3 602.4c1 .6 3 1.4 3 1.4.3 0 .6 0 .7-.3 0-.3 0-.6-.3-.7l-3.2-1.5-2.3-1.8a.5.5 0 00-.7 0c-.2.1-.2.4 0 .6.9 1 2.5 2 2.8 2.3z"/>
  <path fill="#000" d="M1026.7 651v-7.2c2.8 2.2 7.2 3.8 13.6 2.5 0 0 4.4-.7 9-3.7.3-.2.5-.2.7 0 .2.1.1.3 0 .5-1 .9-4.3 3-9.8 4.3-7.3 5.6-13.5 3.6-13.5 3.6z" opacity=".1"/>
  <path fill="#21252B" d="M1038.1 623.8a2 2 0 100-3.8 2 2 0 000 3.8z"/>
  <path fill="#fff" d="M1038.8 622.7a.4.4 0 100-.7.4.4 0 000 .7z"/>
  <path fill="#21252B" d="M1023 625.2a2 2 0 100-3.8 2 2 0 000 3.8z"/>
  <path fill="#fff" d="M1023 624.6a.4.4 0 100-.7.4.4 0 000 .7z"/>
  <path fill="#21252B" d="M1013.7 618.6l.2 2.2a7.5 7.5 0 0014.9-1.3l-.2-2.2c0-.6-.3-1.2-.7-1.6l2.9-.2c-.4.5-.5 1-.5 1.7l.2 2.1a7.5 7.5 0 0014.9-1.3l-.2-2.1a2.7 2.7 0 00-3-2.5l-9.3.8h-.1l-7.2.6-1.2.1-8.3.8a2.7 2.7 0 00-2.4 3zm19.1-3.2h.1l9.4-.9c.9 0 1.7.6 1.8 1.6l.2 2a6.4 6.4 0 01-12.7 1.1l-.2-2.1c-.1-1 .6-1.7 1.4-1.7zm-18.1 3.2c-.1-.9.6-1.7 1.5-1.8l8.3-.7 1.1-.1c1 0 1.8.6 1.8 1.5l.2 2.1a6.4 6.4 0 01-12.7 1l-.2-2z"/>
  <path fill="#000" d="M1031 627.7l2.2-.7c.2 0 .4-.4.3-.6 0-.2-.4-.4-.6-.3l-2.1.7c-.5.2-1.1-.2-1.3-.7-.2-.5.1-1 .6-1.3.3 0 .4-.3.4-.6-.1-.2-.4-.4-.6-.3a2 2 0 00-1.3 2.5c.3 1.1 1.4 1.6 2.4 1.3z" opacity=".1"/>
  <path fill="#4d61fc" d="M1072 625.4s12.7 4.6 16.2 9.2a80 80 0 013.6 20.2c.4 4.7-2.4 9-6.7 10.7-5.2 2-11 1.9-16-.3l-3-1.2c-2.5-1-5.2-1.6-8-1.6l-13.1-.2s15.4-4 27.8-15.4c3.6-3.4 7-15.6-.8-21.4zM1074 756.7s13.5 3.4 17.4 5.4c5.7 3 7 5.5 8.9 8 2 2.7 5.3 3.1 5.3 3.1l.3-23.7.1-14.2-22.2 1.2-9.8 20.2z" class="change-color-in-svg"/>
  <path fill="#000" d="M1105.8 749.5l-19.4-2.6 16.4 8.4-.3 16.8s1.5.9 3 1.1l.3-23.7zM1072 625.4s12.7 4.6 16.2 9.2a80 80 0 013.6 20.2c.4 4.7-2.4 9-6.7 10.7-5.2 2-11 1.9-16-.3l-3-1.2c-2.5-1-5.2-1.6-8-1.6l-13.1-.2s15.4-4 27.8-15.4c3.6-3.4 7-15.6-.8-21.4z" opacity=".1"/>
  <path fill="#4d61fc" d="M1023 769a47.2 47.2 0 01-26.2 8.8c-18.8 0-27.9-20.7-27.9-46.2 0-25.4 9.2-46 28-46 5.1 0 18.8 2.4 26.2 8.8 0 0 11 10.2 24.9 9a21 21 0 008-2.6c2.8-1.6 0-2.3 3.3-2.3 18.2-.1 30.3 14.8 30.3 33.1 0 18.4-9.6 33.2-30.8 33.3-3.2 0 0-.9-2.8-2.4-1.8-1-3.8-1.6-5.9-2-14.6-2.2-27 8.4-27 8.4z" class="change-color-in-svg"/>
  <path fill="#000" d="M1023 769a47.2 47.2 0 01-26.2 8.8c-18.8 0-27.9-20.7-27.9-46.2 0-25.4 9.2-46.1 28-46 5.1 0 18.8 2.4 26.2 8.8 0 0 11 10.2 24.9 9a21 21 0 008-2.6c2.8-1.6 0-2.3 3.3-2.3 18.2-.1 30.3 14.8 30.3 33.1 0 18.4-9.6 33.2-30.8 33.3-3.2 0 0-.9-2.8-2.4-1.8-1-3.8-1.6-5.9-2-14.6-2.2-27 8.4-27 8.4z" opacity=".3"/>
  <path fill="#4d61fc" d="M1015.8 769c-7.6 5.8-12.5 8.8-20 8.8-18.8 0-34-20.7-34-46.2 0-25.4 15.2-46 34-46 5 0 14.4 3.2 20 8.8 0 0 11 10.2 25 9a21 21 0 008-2.6 19 19 0 019-2.4c13.6 0 24.6 14.9 24.6 33.3 0 18.3-11 33.2-24.6 33.2-3.1 0-6.2-.9-9-2.3-1.8-1-3.8-1.7-5.9-2-14.6-2.3-27 8.4-27 8.4z" class="change-color-in-svg"/>
  <path fill="#fff" d="M1015.8 769c-7.6 5.8-12.5 8.8-20 8.8-18.8 0-34-20.7-34-46.2 0-25.4 15.2-46 34-46 5 0 14.4 3.2 20 8.8 0 0 11 10.2 25 9a21 21 0 008-2.6 19 19 0 019-2.4c13.6 0 24.6 14.9 24.6 33.3 0 18.3-11 33.2-24.6 33.2-3.1 0-6.2-.9-9-2.3-1.8-1-3.8-1.7-5.9-2-14.6-2.3-27 8.4-27 8.4z" opacity=".1"/>
  <path fill="#4d61fc" d="M1154.8 719l33.7-2.1c1.3 0 2.4 1 2.5 2.2l.5 15.6c0 1.3-1 2.3-2.3 2.4l-33.7.2c-1.3 0-2.3-1-2.3-2.2l-.5-13.8c0-1.2.9-2.3 2.1-2.4z" class="change-color-in-svg"/>
  <path fill="#000" d="M1154.8 719l33.7-2.1c1.3 0 2.4 1 2.5 2.2l.5 15.6c0 1.3-1 2.3-2.3 2.4l-33.7.2c-1.3 0-2.3-1-2.3-2.2l-.5-13.8c0-1.2.9-2.3 2.1-2.4z"/>
  <path fill="#21252B" d="M1184.7 717l-33.7 2a2.3 2.3 0 00-2.1 2.4l.4 13.9c0 1.2 1.1 2.2 2.4 2.2l33.7-.3c1.3 0 2.3-1.1 2.3-2.4l-.5-15.6c-.1-1.3-1.2-2.3-2.5-2.2zm-8.1 16l-20 .6a2 2 0 01-2.2-1.9c0-1.1.9-2 2-2l20-.8a2 2 0 11.1 4zm-.3-7.1l-20 .6a2 2 0 01-2.1-1.9c0-1 .8-2 2-2l20-.7a2 2 0 01.1 4z"/>
  <path fill="#000" d="M982.1 722.1H976v24.4h6.1v-24.4z"/>
  <path fill="#4d61fc" d="M1035 751.3a18.5 18.5 0 100-37 18.5 18.5 0 000 37z" class="change-color-in-svg"/>
  <path fill="#4d61fc" d="M1153.8 734.9l-109.3 4.3-.3-13.8 109.6-4v13.5z" class="change-color-in-svg"/>
  <path fill="#21252B" d="M1153.8 734.9l-110 5.2.4-14.7 109.6-4v13.5z"/>
  <path fill="#000" d="M1035 744.8a12 12 0 100-24 12 12 0 000 24z"/>
  <path stroke="#000" stroke-miterlimit="10" d="M1160.3 711.3l1 32.3M1170.9 711l1 32.2"/>
  <path fill="#000" d="M1161.4 745.3a1.8 1.8 0 100-3.5 1.8 1.8 0 000 3.5zM1172 745a1.8 1.8 0 100-3.6 1.8 1.8 0 000 3.6zM1160.3 713.1a1.8 1.8 0 100-3.6 1.8 1.8 0 000 3.6zM1170.9 712.8a1.8 1.8 0 100-3.6 1.8 1.8 0 000 3.6z"/>
  <path stroke="#000" stroke-miterlimit="10" d="M982.1 733.4l169.2-6.7M982.1 737l169.2-7.3M982.1 740.5l169.2-8.4-.1-8-169 5.8"/>
  <path fill="#21252B" d="M1041.6 662.3v33.6a.6.6 0 11-1 0v-33.7h1zM1043 662.3v15.9a.6.6 0 101.2 0v-16h-1.2z"/>
  <path fill="#000" d="M981.3 862.8l17.4-19.6c.6-.7 1.8-.6 2.4.2l4.5 6.3c.4.6.4 1.4 0 2l-16.7 19.2c-.6.7-1.7.7-2.3 0l-5.4-6c-.5-.6-.5-1.5 0-2z"/>
  <path fill="#4d61fc" d="M1040 662.3s-12.1-4.6-13.2-13.3l.2-5s-1.6-.9-3.5-3.3c-1-1.4-2.1-3.6-2.1-3.6-2.7.6-3.3 8.3-3.1 11.1.4 6.5 2.3 13.8 21.7 14z" class="change-color-in-svg"/>
  <path fill="#000" d="M1040 662.3s-12.1-4.6-13.2-13.3l.2-5s-1.7-.9-3.5-3.3c-1-1.4-2.1-3.6-2.1-3.6-2.7.6-3.3 8.3-3.1 11.1.4 6.5 2.3 13.8 21.7 14z" opacity=".1"/>
  <path fill="#F79898" d="M1020 885.4v27.2l5 7.8 13.7-11.2 2.6-24.3-21.4.5z"/>
  <path fill="#fff" d="M1020 901v11.6l5 7.8 13.7-11.2.8-8-19.6-.2z"/>
  <path fill="#000" d="M1019.2 882.2h27.2c1 0 1.6.8 1.6 1.7l-.6 7.3c0 .8-.7 1.4-1.5 1.5l-26.7.6c-.9 0-1.6-.6-1.6-1.5v-8c0-.9.7-1.6 1.6-1.6z"/>
  <path fill="#21252B" d="M1020 908.2l-3.5 5.5 3.4.4v-5.9z"/>
  <path fill="#fff" d="M1037.3 922.4l-.3 5.5-23.7 15c-4 2.5-8.8 3.2-13.6 3.2h-5c-6.2-.7-5.7-8.8-5.7-8.8l4.5 4.1 14-1.2 29.8-17.8z"/>
  <path fill="#21252B" d="M988.8 934.7a6 6 0 014.2-4.9l10.8-3.1 5-10.3a8.3 8.3 0 0115.5 1.5l.7 2.5 10.3-12.6a2 2 0 011.5-.7h2.1l-1.6 15.3-24 15.1a26 26 0 01-13.6 4h-5a6 6 0 01-6-6.8z"/>
  <path fill="#000" d="M999 928s-1.4 3.5 2 4.8c3.5 1.4 15.1-1.7 24-12.4 0 0-.8-6.8-6.4-8.3-5.6-1.5-9.1 2.2-10.4 5.5-.5 1.4-1.4 3-2.1 4.4l-2.3 4.6-4.7 1.4z"/>
  <path fill="#fff" d="M1009.4 925.8c.2 0 .4-.1.5-.3.1-.3 0-.7-.3-.8l-4-1.7-.5 1 4 1.8h.3z"/>
  <path fill="#fff" d="M1009.4 925.8c.2 0 .4-.1.5-.3.1-.3 0-.7-.3-.8l-4-1.7-.5 1 4 1.8h.3zM1012 922.7c.3 0 .5-.1.6-.4 0-.3 0-.6-.4-.7l-4.9-2-.5 1 5 2h.2z"/>
  <path fill="#fff" d="M1012 922.7c.3 0 .5-.1.6-.4 0-.3 0-.6-.4-.7l-4.9-2-.5 1 5 2h.2zM1015 919.7h-.2l-6.3-2.7.5-1 6.3 2.6c.2.1.4.4.3.7-.1.3-.4.4-.6.4z"/>
  <path fill="#000" d="M1084 695v16.6l-2.1-2.7-1-1.1-.6-.7 2-12.3a.8.8 0 011.6.2z" opacity=".1"/>
  <path fill="#4d61fc" d="M921.4 908.7l2 6.7a2 2 0 01-1.4 2.5L859 929.6l-2.6-14.4 62.8-8a2 2 0 012 1.4z" class="change-color-in-svg"/>
  <path fill="#fff" d="M921.4 908.7l2 6.7a2 2 0 01-1.4 2.5L859 929.6l-2.6-14.4 62.8-8a2 2 0 012 1.4z" opacity=".3"/>
  <path fill="#4d61fc" d="M859.2 929.7c1.6-.3 2.4-3.8 1.7-7.8-.8-4-2.7-6.9-4.4-6.6-1.7.4-2.5 3.8-1.7 7.8.7 4 2.7 6.9 4.4 6.6z" class="change-color-in-svg"/>
  <path fill="#000" d="M859.2 929.7c1.6-.3 2.4-3.8 1.7-7.8-.8-4-2.7-6.9-4.4-6.6-1.7.4-2.5 3.8-1.7 7.8.7 4 2.7 6.9 4.4 6.6z" opacity=".3"/>
  <path fill="#000" d="M861.1 924l21.3-4c1.7-.3 3.3-1 4.6-2.2 1.2-1 2.7-1.7 4.3-2l7.9-1.1c.3-.1.5-.4.4-.7 0-.3-.3-.5-.6-.5l-7.9 1.2c-1.8.3-3.5 1-4.9 2.3a8.7 8.7 0 01-4 1.9l-21.2 4 .1 1.1zM892 920.7l31.5-5v-.2l-.3-1-31.3 5c-.3.1-.5.4-.5.7 0 .3.3.5.6.5zM860.5 920.5l13.5-2.3c.4 0 .6-.4.5-.7 0-.3-.3-.5-.7-.5l-13.7 2.4.4 1z" opacity=".3"/>
  <path fill="#fff" d="M889 911.6c-30-3-27.1-32.6-27.1-32.6s2 4 7.5 6.8c0 0-9-14-6-30.3 0 0 1.8 5 9.6 7.9 0 0-11.1-36.3 21.6-56.2 0 0-7 12.6 2.7 26.3 8.7 12.2 10.8 12.1 8.4 28.7 0 0 4-14.3 17-12.3 0 0-9 2.4-5.2 13 5.2 14.5 11.7 52.7-28.4 48.7z"/>
  <path fill="#4d61fc" d="M889 911.6s-14.9-.5-17-29.6c0 0 4.9 1.1 6.5 6.7 0 0 1.5-8.7-3.6-14.7-5-6-5-8.6-5-8.6s5.6 3.4 11.2 3.4c0 0-4.7-4.3-3-14.2 1.7-9.9 9.4-23.5 9.4-23.5s-2.5 12.9 9.5 22c12 9 4 29.4 4 29.4s4.3-16 11.4-20.8c0 0-1.6 6 2.6 14.8 5.8 11.8 1.2 40.4-26 35.1zM911.4 844.9c-.3-2 0-5.3 3-10.4 0 0-.4 3.7.2 6 .7 2.3 1 3.2.9 4.3-.4 2.4-3.7 2.4-4 0zM932.9 856c-1 5.5-5.2 3.7-7.5 5.7s.2 7.4.2 7.4.9-3 4-4c5.5-1.6 3.3-9 3.3-9zM851 857.3c-1.5-1.3-4-4.8-1.2-12.3 0 0-1.3 4.1 1.8 6.3 2.8 2 3.8 5.2 2 6.3-.8.4-1.8.3-2.6-.3zM858 879.4c-2.4 0-5.4-2-6.5-7 0 0 3 2.6 5.5 2.9 3.6.4 2.6 4.1 1 4.1z" class="change-color-in-svg"/>
  <path fill="#4d61fc" d="M867.7 910.5l-2.1 6.7a2 2 0 001.5 2.5l62.8 11.8 2.7-14.3-62.9-8a2 2 0 00-2 1.3z" class="change-color-in-svg"/>
  <path fill="#fff" d="M867.7 910.5l-2.1 6.7a2 2 0 001.5 2.5l62.8 11.8 2.7-14.3-62.9-8a2 2 0 00-2 1.3z" opacity=".5"/>
  <path fill="#4d61fc" d="M934.3 924.9c.8-4 0-7.5-1.7-7.8-1.7-.3-3.6 2.7-4.4 6.6-.7 4 0 7.5 1.8 7.8 1.6.3 3.6-2.7 4.3-6.6z" class="change-color-in-svg"/>
  <path fill="#000" d="M934.3 924.9c.8-4 0-7.5-1.7-7.8-1.7-.3-3.6 2.7-4.4 6.6-.7 4 0 7.5 1.8 7.8 1.6.3 3.6-2.7 4.3-6.6z" opacity=".3"/>
  <path fill="#000" d="M928 925.8l-21.3-4c-1.7-.3-3.3-1-4.6-2.2a8.6 8.6 0 00-4.4-2l-7.8-1.1a.6.6 0 01-.5-.7c0-.3.3-.5.6-.5l7.9 1.2c1.8.3 3.5 1 5 2.3 1 1 2.5 1.6 4 2l21.1 3.9v1.1zM897 922.5l-31.5-5v-.2l.4-1 31.3 5.1c.3 0 .5.3.4.6 0 .3-.2.5-.5.5zM928.5 922.3L915 920a.6.6 0 01-.5-.7c0-.3.4-.5.7-.4l13.7 2.3-.4 1.1z" opacity=".3"/>
  <path fill="#000" d="M969 798.6l-10.4-16.2 19.3 16.2H969z" opacity=".1"/>
  <path fill="#000" d="M535.2 692.1l-160.9 186 .8.7 160.8-186-.7-.7z"/>
  <path fill="#4d61fc" d="M535.6 692.5s76.7 21 169.1-1.5L580.3 878.5H399.7l135.9-186z" class="change-color-in-svg"/>
  <path fill="#4d61fc" d="M704.7 691l102.5 187.5H580.3L704.7 691z" class="change-color-in-svg"/>
  <path fill="#fff" d="M704.7 691l102.5 187.5H580.3L704.7 691z" opacity=".3"/>
  <path fill="#4d61fc" d="M704.7 691l-9 11.6h16.6l-7.6-11.6z" class="change-color-in-svg"/>
  <path fill="#000" d="M704.7 691l-9 11.6h16.6l-7.6-11.6z" opacity=".5"/>
  <path fill="#fff" d="M699.8 702.6s-22.6 114.2-74 162.5c0 0 16.8 4.6 22 13.4 0 0 46-56.6 57-157.2 11 100.6 56.9 157.2 56.9 157.2 5.1-8.8 22-13.4 22-13.4-51.4-48.3-74-162.5-74-162.5h-10z" opacity=".3"/>
  <path fill="#4d61fc" d="M559.4 878.5l6.4-8.3h72.5s7.3 4 9.5 8.3h-88.4zM807.2 878.5l-4.8-8.3h-31.3s-7.2 4-9.4 8.3h45.5z" class="change-color-in-svg"/>
  <g fill="#000" opacity=".3">
    <path d="M399.7 878.5l6-8.3h232.6s7.3 4 9.5 8.3H399.6zM807.2 878.5l-4.8-8.3h-31.3s-7.2 4-9.4 8.3h45.5z" opacity=".3"/>
  </g>
  <path fill="#000" d="M565.4 871.5l-.8-.6 140.1-180.7.4.5 117 179.3-.9.5L704.7 692 565.4 871.5z"/>
  <path fill="#000" d="M546.5 748.6c6.2 1.7 29.1 7 61.8.4 2.4-.5 4 2.2 2.6 4.1l-43 54.9c-.5.6-1.3 1-2 1h-62.3a2.6 2.6 0 01-2-4.2l42.2-55.3c.6-.8 1.7-1.2 2.7-.9z" opacity=".5"/>
  <path fill="#fff" d="M547.7 754.6c5 1.4 23.3 5.6 49.4.4a2 2 0 012 3.3L564.9 802a2 2 0 01-1.7.8h-49.7a2 2 0 01-1.7-3.3l33.8-44.2a2 2 0 012.2-.8z" opacity=".4"/>
  <path fill="#4d61fc" d="M608.4 760l-24.8-2.1c-7.3-.7-14.7-.6-22 0l-19.4 2a9.4 9.4 0 010-18.8l20.4 1.9c6.4.6 12.8.6 19.1.2l26.2-2 .5 18.7z" class="change-color-in-svg"/>
  <path fill="#fff" d="M608.4 760l-24.8-2.1c-7.3-.7-14.7-.6-22 0l-19.4 2a9.4 9.4 0 010-18.8l20.4 1.9c6.4.6 12.8.6 19.1.2l26.2-2 .5 18.7z" opacity=".3"/>
  <path fill="#4d61fc" d="M607.8 751.6c1.5.8 4.1-.3 4.1-2.9 0-1.6-1.4-3-3-3.3a4.6 4.6 0 00-5.4 3.7c-.5 2.2.7 4.7 2.5 5.8 1.5 1 3.1 1 4.8.4a7.2 7.2 0 004.6-8.8c-.9-3.3-4-5.5-7.5-5.4a9.4 9.4 0 00-.8 18.8 11 11 0 0012.2-9.4l-3.8-.5" class="change-color-in-svg"/>
  <path fill="#fff" d="M607.8 751.6c1.5.8 4.1-.3 4.1-2.9 0-1.6-1.4-3-3-3.3a4.6 4.6 0 00-5.4 3.7c-.5 2.2.7 4.7 2.5 5.8 1.5 1 3.1 1 4.8.4a7.2 7.2 0 004.6-8.8c-.9-3.3-4-5.5-7.5-5.4a9.4 9.4 0 00-.8 18.8 11 11 0 0012.2-9.4l-3.8-.5" opacity=".5"/>
  <path fill="#4d61fc" d="M554.7 878.5v-22.8c0-.9.7-1.6 1.5-1.6h1.8c.8 0 1.4.6 1.5 1.4l.8 5.5 1-4.6c.1-.7.7-1.2 1.5-1.2h1.2c.8 0 1.5.7 1.5 1.5v21.8h-10.8zM821 878.5v-26.3c0-.4.3-.8.8-.8h3.1c.4 0 .8.3.8.7l.8 9 1-6c.1-.5.6-.8 1-.7l2.7.6c.3.1.6.4.6.8v22.7H821zM369.3 878.5v-22.8c0-.9.7-1.6 1.5-1.6h1.8c.8 0 1.4.6 1.5 1.4l.7 5.5 1-4.6c.2-.7.8-1.2 1.5-1.2h1.3c.8 0 1.5.7 1.5 1.5v21.8h-10.8z" class="change-color-in-svg"/>
  <g fill="#000" opacity=".5">
    <path d="M554.7 878.5v-22.8c0-.9.7-1.6 1.5-1.6h1.8c.8 0 1.4.6 1.5 1.4l.8 5.5 1-4.6c.1-.7.7-1.2 1.5-1.2h1.2c.8 0 1.5.7 1.5 1.5v21.8h-10.8zM369.3 878.5v-22.8c0-.9.7-1.6 1.5-1.6h1.8c.8 0 1.4.6 1.5 1.4l.7 5.5 1-4.6c.2-.7.8-1.2 1.5-1.2h1.3c.8 0 1.5.7 1.5 1.5v21.8h-10.8zM821 878.5v-26.3c0-.4.3-.8.8-.8h3.1c.4 0 .8.3.8.7l.8 9 1-6c.1-.5.6-.8 1-.7l2.7.6c.3.1.6.4.6.8v22.7H821z" opacity=".5"/>
  </g>
  <path fill="#fff" d="M531.6 697.8s-3.8 34.6 78 30c49.7-2.7 82.3-26.9 95.1-36.8 0 0-34 9.4-85.4 10.3-37.3.6-65.2-5.2-83.7-8.8l-4 5.3z" opacity=".3"/>
  <path fill="#fff" d="M535.1 692.3s-2.8 31 65.4 27.2c41.3-2.3 63.5-14.4 74.2-22.7 0 0-22.4 4.6-65 4.5-42.7-.1-74.6-9-74.6-9z" opacity=".5"/>
  <path fill="#000" d="M647.8 878.5s46-56.6 57-157.2c11 100.6 56.9 157.2 56.9 157.2h-114z"/>
  <path fill="#4d61fc" d="M700.9 747.8l1.9-11.5 2-15 1.7 14 2 12.5v130.7H701V747.8zM608.4 760.4H607a9.9 9.9 0 01-6.4-16.2 9.9 9.9 0 017.2-3.5 8 8 0 018 5.7c.2 1.1.3 2.2.1 3.2l3.4.5c.2 0 .4.3.4.5-.8 5.6-5.8 9.8-11.4 9.8zm-.3-18.8h-.2a9 9 0 00-.7 17.8c5.5.6 10.6-3.1 11.6-8.5l-3-.4a7.8 7.8 0 01-4.8 5.2c-1.9.7-3.6.6-5.2-.4-2-1.3-3.3-4-2.7-6.3a5 5 0 015.9-4c2 .4 3.4 2 3.4 3.7 0 1.3-.6 2.4-1.6 3-1 .7-2.3.8-3.2.3a.4.4 0 01.4-.8c.6.3 1.5.3 2.3-.2.4-.3 1.2-1 1.2-2.2 0-1.4-1.2-2.6-2.7-3-2.2-.4-4.3 1-4.8 3.4-.5 2 .5 4.3 2.3 5.3 1.3.9 2.8 1 4.4.4 2-.8 3.8-2.5 4.4-5 .2-1 .2-2-.1-3.2a7 7 0 00-6.9-5.1z" class="change-color-in-svg"/>
  <path fill="#000" d="M608.4 760.4H607a9.9 9.9 0 01-6.4-16.2 9.9 9.9 0 017.2-3.5 8 8 0 018 5.7c.2 1.1.3 2.2.1 3.2l3.4.5c.2 0 .4.3.4.5-.8 5.6-5.8 9.8-11.4 9.8zm-.3-18.8h-.2a9 9 0 00-.7 17.8c5.5.6 10.6-3.1 11.6-8.5l-3-.4a7.8 7.8 0 01-4.8 5.2c-1.9.7-3.6.6-5.2-.4-2-1.3-3.3-4-2.7-6.3a5 5 0 015.9-4c2 .4 3.4 2 3.4 3.7 0 1.3-.6 2.4-1.6 3-1 .7-2.3.8-3.2.3a.4.4 0 01.4-.8c.6.3 1.5.3 2.3-.2.4-.3 1.2-1 1.2-2.2 0-1.4-1.2-2.6-2.7-3-2.2-.4-4.3 1-4.8 3.4-.5 2 .5 4.3 2.3 5.3 1.3.9 2.8 1 4.4.4 2-.8 3.8-2.5 4.4-5 .2-1 .2-2-.1-3.2a7 7 0 00-6.9-5.1z" opacity=".5"/>
  <path fill="#000" d="M570.1 757.5c-2-7.4 2-12.7 3.2-14h1v.2c0 .1-2.3 4.9 2 13.6l.2.2h-1a20.6 20.6 0 01-2.6-12 14.2 14.2 0 00-1.9 11.8v.2h-.9zM565.5 873.8l-10.8-7.6v-1.3l10.8 7.6v1.3z"/>
  <path fill="#000" d="M554.7 873.7v-1.1l10.8-6v1.2l-10.8 6zM831.8 873.8l-10.8-7.6v-1.3l10.8 7.6v1.3z"/>
  <path fill="#000" d="M821 873.7v-1.1l10.8-6v1.2l-10.8 6zM273.2 803.3c1.2-2.1 2.8-3.3 4.8-3 10.5 1.3 24.6 56.2 24.6 56.2s-5.5-38.2 2.6-40.9c8-2.6 11.5 38.3 11.5 38.3s-4.4-64.1 9.6-64.1 6.5 76.4 6.5 76.4 12.6-24.6 21.1-21.2c8.5 3.4-7 40-7 40s19.5-20.4 36.6-14.5c17.1 6 20.6 43.1 20.6 43.1s13.1-10 24.2-2.4c11 7.6 1 22 1 22s57.8-26.2 89.3 29.7c6.5 11.5 10 26.7 11.5 43.7 0 0 23.3-22.3 50-5.8 7.4 4.6 12 10.8 14.5 17.4H333.1l-59.9-214.9z"/>
  <path fill="#4d61fc" d="M956.5 697.3l39 27 6.6-11.3-20.2-23.5 8.9-5-11.3-28.7-24.6 28.7a8.7 8.7 0 001.6 12.8z" class="change-color-in-svg"/>
  <path fill="#F79898" d="M1002.1 713l3.3.1c1.2 0 2.4-.1 3.5-.6l4.3-1.5c1-.3 2-.5 3-.5l11-.3c.6 2-.7 4.1-2.7 4.6l-3.2.6-3.5 1.8c-2.2 1.1-2.3 4-.3 5.4l7 6 5.6 3a2 2 0 01-1.7 3.7l-5.5-2.2-6.4-4.9 6 7.4 4.6 4.3c.6.6.8 1.5.4 2.2-.5 1-1.8 1.3-2.7.7l-6.6-4.7-4.8-5.6 4.8 5.6 4.4 3.2c.6.5.7 1.3.2 1.9-.4.3-1 .4-1.4.2l-6-3-5.7-5.3 5.8 5.3 2.7 1.5a.9.9 0 11-.8 1.6l-3.9-2s-3.7-4.3-6.1-6c-2.5-1.6-5.4-6.3-7.9-8.5-2.4-2.2-4-2.7-4-2.7l6.6-11.3z"/>
  <path stroke="#000" stroke-linecap="round" stroke-linejoin="round" stroke-miterlimit="10" stroke-width=".6" d="M1013.4 732.5l4.7 5.6 3.7 2.6M1009.7 735l5.7 5.4 2.8 1.5" opacity=".1"/>
  <path fill="#4d61fc" d="M1074.7 742.8l29.6 10.5a8.7 8.7 0 0011.2-8.3l-.7-8.3-30.3 1.7-9.8 4.4z" class="change-color-in-svg"/>
  <path fill="#F79898" d="M1070.8 742.5l-1.5-2.7.2-5.1.5-2.4c.1-.3.4-.6.7-.7a1 1 0 011.2 1l-.2 1.4 1.3 5.6-1.3-5.6.6-4.3c0-.4.3-.8.7-1 .7-.2 1.4.2 1.5 1l.5 3 2.2 5.2-2.2-5.2-1-6a1.3 1.3 0 012.5-.9l3 4.8 2.5 7.3-2.5-7.3-2.3-3.8a1.4 1.4 0 012.2-1.7l4.5 4.6 2.6 6.3 1 3.1c.1.5 0 1-.2 1.3l-.2.3c-.4.6-1 .9-1.6 1h-1.2l-.7.3-2.4 1c-.4.2-.9.2-1.3.2l-.8-.2c-.7 0-1.4.1-1.9.6-.5.4-1.2.6-1.9.5l-1.6-.2-1.2-.1c-.7-.2-1.4-.6-1.8-1.3z"/>
  <path stroke="#000" stroke-linecap="round" stroke-linejoin="round" stroke-miterlimit="10" stroke-width=".6" d="M1073 739.6l-1.3-5.6.2-1.4M1074.5 729.6l.5 3 2.2 5.3M1077.2 726.9l2.3 3.7 2 5.5" opacity=".1"/>
  <path fill="#F79898" d="M1087.3 740.4l2.6-2.5-3.1.1.5 2.4z"/>
  <path fill="#000" d="M1089.9 738l25.1 1.9-.2-3.1-25 1.1zM1001.8 673.4c-.4 0-.8.3-.8.7l-2 10.8c-7.7-.6-22.8 2.4-24.2 2.8-.4.1-.8.4-.7.9 0 .5.4.8 1 .7 4.7-.7 6.8.2 6.8.2 8.7-5.4 17.2-3.9 17.2-3.9l1 .1 2.6.4v-11.9c0-.4-.4-.8-.9-.8zM995.5 724.3s1.2.5 2.8 1.7l5.5-11s4 .6 6.5-.7c2.6-1.2 3.8-2.8 5.8-2.8h11.2l-.2-1.3s-7 0-11.3.3c-1.7.1-3 .7-3.4.8-2.3.8-2.9 1.3-4.8 1.7-2 .3-3.9 0-5.5 0l-6.6 11.3z" opacity=".1"/>
</svg>
