<svg xmlns="http://www.w3.org/2000/svg" width="24" height="24" fill="none"><path fill="currentColor" fill-rule="evenodd" d="M12 16a4 4 0 100-8 4 4 0 000 8zm0 2a6 6 0 100-12 6 6 0 000 12zM11 0h2v4.06a8.08 8.08 0 00-2 0V0zM7.1 5.68L4.21 2.81 2.81 4.22 5.68 7.1c.41-.52.89-1 1.41-1.41zM4.05 11H0v2h4.06a8.08 8.08 0 010-2zm1.62 5.9l-2.87 2.88 1.41 1.41 2.87-2.87c-.52-.41-1-.89-1.41-1.41zM11 19.95V24h2v-4.06a8.07 8.07 0 01-2 0zm5.9-1.62l2.88 2.87 1.41-1.41-2.87-2.87c-.41.52-.89 1-1.41 1.41zM19.95 13H24v-2h-4.06a8.07 8.07 0 010 2zm-1.62-5.9l2.87-2.88-1.41-1.41-2.87 2.87c.52.41 1 .89 1.41 1.41z" clip-rule="evenodd"/></svg>