<svg xmlns="http://www.w3.org/2000/svg" width="24" height="24" fill="none"><path fill="currentColor" d="M8 13a1 1 0 110-2 1 1 0 010 2zM8 17a1 1 0 110-2 1 1 0 010 2zM11 16a1 1 0 102 0 1 1 0 00-2 0zM16 17a1 1 0 110-2 1 1 0 010 2zM11 12a1 1 0 102 0 1 1 0 00-2 0zM16 13a1 1 0 110-2 1 1 0 010 2zM8 7a1 1 0 000 2h8a1 1 0 100-2H8z"/><path fill="currentColor" fill-rule="evenodd" d="M6 3C4 3 3 4 3 6v12c0 2 1 3 3 3h12c2 0 3-1 3-3V6c0-2-1-3-3-3H6zm12 2H6L5 6v12l1 1h12l1-1V6l-1-1z" clip-rule="evenodd"/></svg>