<?xml version="1.0" encoding="UTF-8" standalone="no"?><!DOCTYPE svg PUBLIC "-//W3C//DTD SVG 1.1//EN" "http://www.w3.org/Graphics/SVG/1.1/DTD/svg11.dtd"><svg width="100%" height="100%" viewBox="0 0 800 600" version="1.1" xmlns="http://www.w3.org/2000/svg" xmlns:xlink="http://www.w3.org/1999/xlink" xml:space="preserve" xmlns:serif="http://www.serif.com/" style="fill-rule:evenodd;clip-rule:evenodd;stroke-linejoin:round;stroke-miterlimit:2;"><g id="Margin"><rect id="Background" x="0" y="0" width="800" height="600" style="fill:#afeadc;"/><text id="Text" x="23.56px" y="62.735px" style="font-family:'Inter-Bold', 'Inter';font-weight:700;font-size:50px;fill:#172421;">M<tspan x="67.798px 95.311px 112.969px 143.128px 155.229px " y="62.735px 62.735px 62.735px 62.735px 62.735px ">argin</tspan></text></g><g id="Border"><rect id="Background1" serif:id="Background" x="100.106" y="87.157" width="599.789" height="425.685" style="fill:#f5e2e2;"/><text id="Text1" serif:id="Text" x="109.844px" y="130.389px" style="font-family:'Inter-Bold', 'Inter';font-weight:700;font-size:50px;fill:#3b2323;">B<tspan x="141.388px 170.569px 188.228px 218.493px 246.876px " y="130.389px 130.389px 130.389px 130.389px 130.389px ">order</tspan></text></g><g id="Padding"><rect id="Background2" serif:id="Background" x="179.176" y="143.276" width="441.648" height="313.449" style="fill:#d1b6e4;"/><text id="Text2" serif:id="Text" x="191.076px" y="186.989px" style="font-family:'Inter-Bold', 'Inter';font-weight:700;font-size:50px;fill:#28242b;">P<tspan x="221.234px 248.747px 279.012px 309.277px 321.378px 350.968px " y="186.989px 186.989px 186.989px 186.989px 186.989px 186.989px ">adding</tspan></text></g><g id="Content"><rect id="Background3" serif:id="Background" x="276.527" y="212.368" width="246.945" height="175.263" style="fill:#f2eeca;"/><text id="Text3" serif:id="Text" x="304.482px" y="318.164px" style="font-family:'Inter-Bold', 'Inter';font-weight:700;font-size:50px;fill:#302f24;">C<tspan x="340.589px 369.771px 399.361px 417.001px 445.384px 474.974px " y="318.164px 318.164px 318.164px 318.164px 318.164px 318.164px ">ontent</tspan></text></g></svg>