<svg version="1.1" xmlns="http://www.w3.org/2000/svg" viewBox="0 0 455.5760813713073 313.8618260383606" width="455.5760813713073" height="313.8618260383606">
  <!-- svg-source:excalidraw -->
  
  <defs>
    <style class="style-fonts">
      @font-face {
        font-family: "Virgil";
        src: url("https://excalidraw.com/Virgil.woff2");
      }
      @font-face {
        font-family: "Cascadia";
        src: url("https://excalidraw.com/Cascadia.woff2");
      }
    </style>
    
  </defs>
  <g stroke-linecap="round" transform="translate(22.569926103949456 14.717941775918007) rotate(0 193.78878784179688 136.14605712890625)"><path d="M32 0 M32 0 C125.23 0.1, 220.89 1.11, 355.58 0 M32 0 C112.78 -0.47, 192.81 -1.35, 355.58 0 M355.58 0 C376.62 0.7, 385.67 11.92, 387.58 32 M355.58 0 C375.42 -2.14, 388.3 10.53, 387.58 32 M387.58 32 C390.41 100.15, 390.38 168.81, 387.58 240.29 M387.58 32 C389.8 89.15, 388.45 146.08, 387.58 240.29 M387.58 240.29 C386.29 259.71, 378.89 270.39, 355.58 272.29 M387.58 240.29 C389.13 259.44, 375.17 270.93, 355.58 272.29 M355.58 272.29 C270.7 273.29, 188.91 273.29, 32 272.29 M355.58 272.29 C237.28 273.69, 118.66 274.34, 32 272.29 M32 272.29 C11.19 271.12, -1.97 262.75, 0 240.29 M32 272.29 C9.57 272.06, -0.83 261.93, 0 240.29 M0 240.29 C-0.73 167.53, 0.11 93.48, 0 32 M0 240.29 C1.44 186.46, 0.15 131.29, 0 32 M0 32 C0.96 11.51, 9.9 -0.18, 32 0 M0 32 C0.51 12.73, 12.77 1.59, 32 0" stroke="#1e1e1e" stroke-width="1" fill="none"></path></g><g stroke-linecap="round"><g transform="translate(120.4701336234807 15.180252566933632) rotate(0 0.25729248442223707 137.86111848622093)"><path d="M-0.67 -0.13 C-0.55 46.11, 0.86 230.89, 0.82 276.96 M1.18 -1.24 C1.18 44.73, 0.14 229.53, 0.16 275.45" stroke="#1e1e1e" stroke-width="1" fill="none"></path></g></g><mask></mask><g stroke-linecap="round"><g transform="translate(212.60248957655858 16.440990770165854) rotate(0 0.6149945308201268 135.26163334652318)"><path d="M0.84 -0.7 C0.89 44.42, 1.22 224.81, 1.49 269.95 M-0.18 1.54 C-0.43 46.89, -0.02 226.26, 0.34 271.23" stroke="#1e1e1e" stroke-width="1" fill="none"></path></g></g><mask></mask><g stroke-linecap="round"><g transform="translate(312.39667902968336 15.779674852197047) rotate(0 -1.4775926440954663 137.24389862178825)"><path d="M0.41 0.09 C-0.04 45.84, -2.83 228.35, -3.37 273.98 M-0.83 -0.92 C-0.86 45.07, -0.63 229.42, -1.12 275.4" stroke="#1e1e1e" stroke-width="1" fill="none"></path></g></g><mask></mask><g stroke-linecap="round"><g transform="translate(412.35737238905836 73.04493364125955) rotate(0 -195.99819151461122 1.1060585108411658)"><path d="M0.17 0.79 C-64.99 0.91, -326.8 0.43, -392.16 0.5 M-1.2 0.16 C-65.9 0.51, -325.28 2.19, -390.01 2.04" stroke="#1e1e1e" stroke-width="1" fill="none"></path></g></g><mask></mask><g stroke-linecap="round"><g transform="translate(412.8902611732485 142.18621817684112) rotate(0 -194.4904102022898 0.8737423394676966)"><path d="M-0.94 0.2 C-65.91 0.54, -325.08 2.18, -389.75 2.5 M0.77 -0.75 C-63.84 -0.75, -322.44 0.79, -387.54 0.92" stroke="#1e1e1e" stroke-width="1" fill="none"></path></g></g><mask></mask><g stroke-linecap="round"><g transform="translate(412.68866205215477 216.57147208309118) rotate(0 -195.05214878618722 0.07139777093055955)"><path d="M0.8 0.77 C-64.47 0.52, -325.66 -0.64, -390.9 -0.62 M-0.24 0.13 C-65.21 -0.04, -324.1 0.83, -388.75 0.65" stroke="#1e1e1e" stroke-width="1" fill="none"></path></g></g><mask></mask><g transform="translate(157.9549969047307 35.62995959818363) rotate(0 6.55999755859375 12.5)"><text x="0" y="0" font-family="Virgil, Segoe UI Emoji" font-size="20px" fill="#1e1e1e" text-anchor="start" style="white-space: pre;" direction="ltr" dominant-baseline="text-before-edge">A</text></g><g transform="translate(59.061076006293206 98.51634265482426) rotate(0 6.55999755859375 12.5)"><text x="0" y="0" font-family="Virgil, Segoe UI Emoji" font-size="20px" fill="#1e1e1e" text-anchor="start" style="white-space: pre;" direction="ltr" dominant-baseline="text-before-edge">A</text></g><g transform="translate(254.0325115531682 35.10658313333988) rotate(0 7.269996643066406 12.5)"><text x="0" y="0" font-family="Virgil, Segoe UI Emoji" font-size="20px" fill="#1e1e1e" text-anchor="start" style="white-space: pre;" direction="ltr" dominant-baseline="text-before-edge">B</text></g><g transform="translate(60.8858059257268 170.0696263462305) rotate(0 7.269996643066406 12.5)"><text x="0" y="0" font-family="Virgil, Segoe UI Emoji" font-size="20px" fill="#1e1e1e" text-anchor="start" style="white-space: pre;" direction="ltr" dominant-baseline="text-before-edge">B</text></g><g transform="translate(62.84912379682055 245.7268529087305) rotate(0 6.439994812011719 12.5)"><text x="0" y="0" font-family="Virgil, Segoe UI Emoji" font-size="20px" fill="#1e1e1e" text-anchor="start" style="white-space: pre;" direction="ltr" dominant-baseline="text-before-edge">C</text></g><g transform="translate(357.922961077094 33.80262805521488) rotate(0 6.439994812011719 12.5)"><text x="0" y="0" font-family="Virgil, Segoe UI Emoji" font-size="20px" fill="#1e1e1e" text-anchor="start" style="white-space: pre;" direction="ltr" dominant-baseline="text-before-edge">C</text></g><g transform="translate(157.5599773734807 99.93016101419926) rotate(0 6.879997253417969 12.5)"><text x="0" y="0" font-family="Virgil, Segoe UI Emoji" font-size="20px" fill="#1e1e1e" text-anchor="start" style="white-space: pre;" direction="ltr" dominant-baseline="text-before-edge">0</text></g><g transform="translate(252.45390590131274 171.0334935337305) rotate(0 6.879997253417969 12.5)"><text x="0" y="0" font-family="Virgil, Segoe UI Emoji" font-size="20px" fill="#1e1e1e" text-anchor="start" style="white-space: pre;" direction="ltr" dominant-baseline="text-before-edge">0</text></g><g transform="translate(352.31328090131274 238.912521854043) rotate(0 6.879997253417969 12.5)"><text x="0" y="0" font-family="Virgil, Segoe UI Emoji" font-size="20px" fill="#1e1e1e" text-anchor="start" style="white-space: pre;" direction="ltr" dominant-baseline="text-before-edge">0</text></g><g transform="translate(352.45976527631274 165.73973132669926) rotate(0 6.879997253417969 12.5)"><text x="0" y="0" font-family="Virgil, Segoe UI Emoji" font-size="20px" fill="#1e1e1e" text-anchor="start" style="white-space: pre;" direction="ltr" dominant-baseline="text-before-edge">0</text></g><g transform="translate(252.81584437787524 240.06102038919926) rotate(0 6.879997253417969 12.5)"><text x="0" y="0" font-family="Virgil, Segoe UI Emoji" font-size="20px" fill="#1e1e1e" text-anchor="start" style="white-space: pre;" direction="ltr" dominant-baseline="text-before-edge">0</text></g><g transform="translate(164.51652797162524 238.62278796732426) rotate(0 2.7099990844726562 12.5)"><text x="0" y="0" font-family="Virgil, Segoe UI Emoji" font-size="20px" fill="#1e1e1e" text-anchor="start" style="white-space: pre;" direction="ltr" dominant-baseline="text-before-edge">1</text></g><g transform="translate(161.06335719525805 168.761642947793) rotate(0 2.7099990844726562 12.5)"><text x="0" y="0" font-family="Virgil, Segoe UI Emoji" font-size="20px" fill="#1e1e1e" text-anchor="start" style="white-space: pre;" direction="ltr" dominant-baseline="text-before-edge">1</text></g><g transform="translate(260.66272242963305 96.1968236118555) rotate(0 2.7099990844726562 12.5)"><text x="0" y="0" font-family="Virgil, Segoe UI Emoji" font-size="20px" fill="#1e1e1e" text-anchor="start" style="white-space: pre;" direction="ltr" dominant-baseline="text-before-edge">1</text></g><g transform="translate(359.84912379682055 97.981613650918) rotate(0 2.7099990844726562 12.5)"><text x="0" y="0" font-family="Virgil, Segoe UI Emoji" font-size="20px" fill="#1e1e1e" text-anchor="start" style="white-space: pre;" direction="ltr" dominant-baseline="text-before-edge">1</text></g><g stroke-linecap="round"><g transform="translate(11.019205889105706 10.487473025918007) rotate(0 216.76883479654794 146.4434399932623)"><path d="M-1.02 -0.49 C71.5 48.23, 362.11 244.44, 434.56 293.37" stroke="#1e1e1e" stroke-width="4.5" fill="none" stroke-dasharray="1.5 10"></path></g></g><mask></mask></svg>