<svg version="1.1" xmlns="http://www.w3.org/2000/svg" viewBox="0 0 477.52978515625 336.1810302734375"
    width="477.52978515625" height="336.1810302734375">
    <!-- svg-source:excalidraw -->

    <defs>
        <style class="style-fonts">
            @font-face {
                font-family: "Virgil";
                src: url("https://excalidraw.com/Virgil.woff2");
            }

            @font-face {
                font-family: "Cascadia";
                src: url("https://excalidraw.com/Cascadia.woff2");
            }
        </style>

    </defs>
    <g stroke-linecap="round"
        transform="translate(165.79891967773438 10) rotate(0 64.31265258789062 61.13421630859375)">
        <path
            d="M67.47 0.27 C76.92 -0.07, 88.22 4.51, 96.66 9.27 C105.1 14.03, 112.86 20.98, 118.12 28.83 C123.39 36.67, 127.23 46.8, 128.24 56.32 C129.25 65.85, 128.07 77.24, 124.19 85.97 C120.31 94.7, 112.71 103.02, 104.97 108.73 C97.22 114.44, 87.66 118.28, 77.73 120.24 C67.8 122.21, 55.06 123.06, 45.38 120.52 C35.7 117.98, 26.53 111.6, 19.63 105.01 C12.73 98.41, 7.1 89.94, 3.97 80.96 C0.85 71.99, -0.7 60.48, 0.88 51.14 C2.45 41.79, 7.27 32.55, 13.43 24.88 C19.59 17.2, 27.88 9.26, 37.84 5.07 C47.79 0.88, 66.22 0.03, 73.16 -0.26 C80.1 -0.55, 79.37 2.13, 79.46 3.33 M53.73 0.18 C62.76 -2.18, 74.3 -0.68, 83.88 2.43 C93.46 5.54, 104.36 12.09, 111.22 18.85 C118.09 25.61, 122.58 34.1, 125.07 43.01 C127.55 51.91, 128.14 63.11, 126.13 72.29 C124.11 81.47, 119.19 90.61, 112.97 98.09 C106.75 105.57, 97.89 113.21, 88.78 117.18 C79.67 121.16, 68.07 122.45, 58.32 121.94 C48.57 121.42, 38.78 119.28, 30.29 114.11 C21.81 108.95, 12.38 99.39, 7.42 90.97 C2.47 82.55, 0.59 72.8, 0.56 63.59 C0.53 54.38, 2.85 44.3, 7.22 35.69 C11.6 27.08, 19.25 17.83, 26.79 11.93 C34.32 6.03, 47.84 1.98, 52.45 0.28 C57.06 -1.41, 54.04 0.68, 54.43 1.74"
            stroke="#1e1e1e" stroke-width="1" fill="none"></path>
    </g>
    <g transform="translate(223.5756619460392 58.40579739426187) rotate(0 6.55999755859375 12.5)"><text
            x="6.55999755859375" y="0" font-family="Virgil, Segoe UI Emoji" font-size="20px" fill="#1e1e1e"
            text-anchor="middle" style="white-space: pre;" direction="ltr" dominant-baseline="text-before-edge">A</text>
    </g>
    <g stroke-linecap="round"
        transform="translate(338.90447998046875 202.39031982421875) rotate(0 64.31265258789062 61.13421630859375)">
        <path
            d="M77.69 0.81 C87.33 2, 98.89 8.95, 106.67 15.4 C114.46 21.85, 120.8 30.8, 124.39 39.51 C127.98 48.23, 129.25 58.39, 128.21 67.68 C127.16 76.97, 123.56 87.47, 118.11 95.24 C112.65 103.01, 104.31 109.9, 95.48 114.28 C86.65 118.67, 75.27 121.28, 65.13 121.55 C54.99 121.81, 43.6 119.95, 34.64 115.88 C25.68 111.8, 16.91 104.72, 11.39 97.07 C5.87 89.41, 2.87 79.49, 1.52 69.95 C0.18 60.41, 0.05 48.91, 3.31 39.84 C6.57 30.77, 13.64 21.8, 21.09 15.53 C28.54 9.26, 37.95 4.62, 48 2.21 C58.05 -0.2, 75.52 0.82, 81.36 1.08 C87.21 1.33, 83.63 2.63, 83.07 3.75 M49.28 0.14 C58.28 -2.8, 71.81 -1.34, 81.49 1.49 C91.16 4.31, 100 10.51, 107.35 17.12 C114.7 23.72, 122.26 32.19, 125.59 41.1 C128.92 50.01, 128.99 61.45, 127.35 70.58 C125.71 79.7, 121.69 88.48, 115.75 95.85 C109.81 103.22, 100.5 110.25, 91.7 114.78 C82.9 119.32, 72.49 122.86, 62.95 123.08 C53.42 123.3, 43.22 120.6, 34.51 116.09 C25.8 111.58, 16.41 104.3, 10.72 96 C5.03 87.7, 1.47 76.04, 0.38 66.29 C-0.71 56.54, 0.26 46.1, 4.17 37.5 C8.08 28.9, 16.03 20.48, 23.84 14.66 C31.64 8.85, 46.58 4.53, 51 2.6 C55.41 0.67, 50.2 2.45, 50.32 3.09"
            stroke="#1e1e1e" stroke-width="1" fill="none"></path>
    </g>
    <g transform="translate(396.8012249953556 250.79611721848062) rotate(0 6.439994812011719 12.5)"><text
            x="6.439994812011719" y="0" font-family="Virgil, Segoe UI Emoji" font-size="20px" fill="#1e1e1e"
            text-anchor="middle" style="white-space: pre;" direction="ltr" dominant-baseline="text-before-edge">C</text>
    </g>
    <g stroke-linecap="round" transform="translate(10 203.91259765625) rotate(0 64.31265258789062 61.13421630859375)">
        <path
            d="M40.96 4.59 C49.47 0.18, 61.28 -1.69, 70.99 -0.63 C80.71 0.42, 91.04 5.67, 99.24 10.91 C107.43 16.16, 115.28 22.54, 120.15 30.83 C125.03 39.12, 128.38 51.2, 128.49 60.66 C128.61 70.12, 125.18 79.28, 120.83 87.57 C116.48 95.86, 110.34 104.71, 102.41 110.4 C94.48 116.09, 83.06 120.2, 73.23 121.73 C63.4 123.26, 52.93 122.77, 43.43 119.59 C33.94 116.4, 23.02 109.8, 16.24 102.61 C9.47 95.42, 5.29 85.64, 2.78 76.45 C0.27 67.26, -1.06 56.54, 1.19 47.45 C3.43 38.36, 9.23 29.17, 16.25 21.9 C23.27 14.63, 38.2 6.94, 43.31 3.84 C48.42 0.73, 46.63 2.33, 46.91 3.29 M62.12 0.6 C71.31 -0.92, 81.72 1.3, 90.6 5.33 C99.48 9.36, 108.99 17.14, 115.4 24.8 C121.81 32.46, 127.61 42.32, 129.06 51.29 C130.5 60.26, 127.35 69.81, 124.07 78.62 C120.79 87.43, 116.04 97.42, 109.35 104.15 C102.67 110.88, 93.51 116.02, 83.98 119 C74.44 121.97, 62.36 123.64, 52.14 122.01 C41.92 120.37, 30.49 115.11, 22.65 109.17 C14.82 103.23, 8.84 95, 5.12 86.35 C1.41 77.71, -0.33 66.85, 0.36 57.31 C1.05 47.77, 4.27 37.28, 9.26 29.11 C14.26 20.94, 21.7 13.13, 30.34 8.28 C38.98 3.43, 56.01 1.34, 61.1 0.01 C66.19 -1.33, 60.71 -0.79, 60.89 0.28"
            stroke="#1e1e1e" stroke-width="1" fill="none"></path>
    </g>
    <g transform="translate(67.06674318383216 252.31839505051187) rotate(0 7.269996643066406 12.5)"><text
            x="7.269996643066406" y="0" font-family="Virgil, Segoe UI Emoji" font-size="20px" fill="#1e1e1e"
            text-anchor="middle" style="white-space: pre;" direction="ltr" dominant-baseline="text-before-edge">B</text>
    </g>
    <g stroke-linecap="round">
        <g transform="translate(176.81826782226562 116.25872802734375) rotate(0 -27.87634691397193 49.51568644856104)">
            <path
                d="M-0.1 0.24 C-9.29 16.65, -45.84 82.26, -54.9 98.73 M-1.62 -0.68 C-10.94 15.82, -46.79 82.93, -55.65 99.71"
                stroke="#1e1e1e" stroke-width="1" fill="none"></path>
        </g>
        <g transform="translate(176.81826782226562 116.25872802734375) rotate(0 -27.87634691397193 49.51568644856104)">
            <path
                d="M-51.07 70.63 C-54.49 80.78, -55.24 89.26, -57.43 100.81 M-52.08 70.57 C-52.51 79.84, -54.36 90.27, -55.5 98.84"
                stroke="#1e1e1e" stroke-width="1" fill="none"></path>
        </g>
        <g transform="translate(176.81826782226562 116.25872802734375) rotate(0 -27.87634691397193 49.51568644856104)">
            <path
                d="M-32.95 80.27 C-42.12 87.35, -48.6 92.78, -57.43 100.81 M-33.96 80.21 C-40.44 86.21, -48.31 93.44, -55.5 98.84"
                stroke="#1e1e1e" stroke-width="1" fill="none"></path>
        </g>
    </g>
    <mask></mask>
    <g stroke-linecap="round">
        <g transform="translate(292.1932678222656 109.40277099609375) rotate(0 36.955455138189734 49.096037192516974)">
            <path
                d="M0.92 -0.2 C12.86 16.3, 59.81 83.2, 71.86 99.54 M-0.06 -1.35 C12.22 14.79, 61.87 81.28, 73.97 97.97"
                stroke="#1e1e1e" stroke-width="1" fill="none"></path>
        </g>
        <g transform="translate(292.1932678222656 109.40277099609375) rotate(0 36.955455138189734 49.096037192516974)">
            <path
                d="M48.65 79.48 C58.72 86.8, 63.77 93.02, 73.03 99.86 M48.57 80.68 C54.99 86.52, 61.39 90.51, 73.64 98.04"
                stroke="#1e1e1e" stroke-width="1" fill="none"></path>
        </g>
        <g transform="translate(292.1932678222656 109.40277099609375) rotate(0 36.955455138189734 49.096037192516974)">
            <path
                d="M65.16 67.3 C70.07 78.59, 69.9 88.66, 73.03 99.86 M65.08 68.49 C67.17 77.4, 69.26 84.57, 73.64 98.04"
                stroke="#1e1e1e" stroke-width="1" fill="none"></path>
        </g>
    </g>
    <mask></mask>
</svg>